<svg height="512" viewBox="0 0 512 512" width="512" xmlns="http://www.w3.org/2000/svg"><g id="Face_With_Tears_of_Joy" data-name="Face With Tears of Joy"><g id="Filled"><path d="m504 240c0 128.13-111.033 264-248 264s-248-135.87-248-264 111.033-232 248-232 248 103.87 248 232z" fill="#ffcc80"/><path d="m136 408a328.84 328.84 0 0 1 -71.723-7.892c45.483 60.672 114.476 103.892 191.723 103.892 136.967 0 248-135.87 248-264 0-47.549-15.3-91.75-41.535-128.548-15.835 166.388-155.929 296.548-326.465 296.548z" fill="#ffb74d"/><path d="m256 440a112 112 0 0 1 -112-112v-131.273a16 16 0 0 1 12.569-15.627c21.031-4.613 64.472-13.1 99.431-13.1s78.4 8.487 99.431 13.1a16 16 0 0 1 12.569 15.627v131.273a112 112 0 0 1 -112 112z" fill="#e27484"/><path d="m364 208c1.338 0 2.668.033 4 .059v-11.332a15.993 15.993 0 0 0 -12.569-15.627c-21.031-4.613-64.472-13.1-99.431-13.1s-78.4 8.487-99.431 13.1a15.993 15.993 0 0 0 -12.569 15.627v131.273a111.52 111.52 0 0 0 12.067 50.614c19.251-97.267 105.014-170.614 207.933-170.614z" fill="#d8667c"/><path d="m335.69 406.7a112 112 0 0 1 -159.38 0c3.57-30.66 37.89-54.7 79.69-54.7s76.12 24.04 79.69 54.7z" fill="#ef5350"/><path d="m488.967 154.526a51.324 51.324 0 0 1 -72.583 72.584c-20.044-20.044-24.384-96.968-24.384-96.968s76.924 4.34 96.967 24.384z" fill="#2196f3"/><path d="m23.033 154.526a51.324 51.324 0 0 0 72.583 72.584c20.044-20.044 24.384-96.968 24.384-96.968s-76.924 4.34-96.967 24.384z" fill="#2196f3"/><path d="m493.187 159.323a68 68 0 0 1 -89 44.374c3.215 9.946 7.223 18.434 12.2 23.413a51.319 51.319 0 0 0 76.8-67.787z" fill="#1e88e5"/><path d="m88 208a72 72 0 0 1 -68.435-49.641 51.325 51.325 0 0 0 76.051 68.751c4.7-4.7 8.533-12.521 11.652-21.745a71.828 71.828 0 0 1 -19.268 2.635z" fill="#1e88e5"/><circle cx="424" cy="168" fill="#90caf9" r="16"/><circle cx="88" cy="168" fill="#90caf9" r="16"/><path d="m336 177.12v22.88a16 16 0 0 1 -16 16h-128a16 16 0 0 1 -16-16v-22.88c22.74-4.34 53.76-9.12 80-9.12s57.26 4.78 80 9.12z" fill="#f5f5f5"/><path d="m336 177.12c-22.74-4.34-53.76-9.12-80-9.12s-57.26 4.78-80 9.12v22.88a16 16 0 0 0 16 16h13.733a171.942 171.942 0 0 1 130.267-38.831z" fill="#e5e5e5"/><circle cx="224" cy="384" fill="#ff8f8f" r="16"/><path d="m287.467 356.836a75.991 75.991 0 0 1 -92.16 65.31 112.038 112.038 0 0 0 140.383-15.446c-2.616-22.463-21.747-41.358-48.223-49.864z" fill="#e53935"/></g><g id="Outline" fill="#231f20"><path d="m503.958 248.993a7.991 7.991 0 0 0 -8.575 7.38c-8.483 113.34-108.883 239.627-239.383 239.627s-230.9-126.292-239.383-239.637a8 8 0 1 0 -15.955 1.194c4.67 62.437 33.907 126.05 80.217 174.529 49.227 51.533 111.421 79.914 175.121 79.914s125.886-28.38 175.113-79.913c46.31-48.477 75.55-112.087 80.225-174.52a8 8 0 0 0 -7.38-8.574z"/><path d="m181.979 26.51a8.146 8.146 0 0 0 2.241-.32 255.845 255.845 0 0 1 71.78-10.19h.02c78.549 0 152.25 35.99 197.16 96.28a8 8 0 1 0 12.84-9.56l-.02-.02a247.88 247.88 0 0 0 -40.141-42.27 258.053 258.053 0 0 0 -49.679-32.39 264.487 264.487 0 0 0 -57.26-20.73 274.15 274.15 0 0 0 -139.18 3.52 8 8 0 0 0 -5.44 9.92 8.046 8.046 0 0 0 7.679 5.76z"/><path d="m151.9 37.37a7.985 7.985 0 0 0 3.181-.66l.06-.03a8 8 0 0 0 -3.25-15.31 7.987 7.987 0 0 0 -7.33 11.18 7.982 7.982 0 0 0 7.339 4.82z"/><path d="m47.62 113.92a7.963 7.963 0 0 0 4.77 1.58l.009-.05v.05a7.936 7.936 0 0 0 6.42-3.22 233.4 233.4 0 0 1 68.671-61.49 8 8 0 1 0 -8.16-13.76 256.463 256.463 0 0 0 -40.16 29.42 247.38 247.38 0 0 0 -33.191 36.27 8 8 0 0 0 1.641 11.2z"/><path d="m480.8 158.07a21.712 21.712 0 0 1 2.51 2.11 43.324 43.324 0 1 1 -61.27 61.27c-3.44-3.31-7.391-11.12-10.311-20.4-4.83-14.97-7.75-33.55-9.359-46.5-.65-5.19-1.21-10.48-1.681-15.72 5.311.47 13.54 1.31 22.7 2.61a7.276 7.276 0 0 0 1.14.08 8.031 8.031 0 0 0 7.909-6.87 8 8 0 0 0 -6.8-9.05c-17.48-2.48-31.61-3.35-33.161-3.44l-8.969-.51.51 9c.12 2.06 1.29 20.74 4.76 41.76a239.927 239.927 0 0 0 7.72 33.54c3 9.15 7.04 19.48 14.229 26.82a59.124 59.124 0 0 0 41.911 17.37h.07a59.321 59.321 0 0 0 41.92-101.27 38.347 38.347 0 0 0 -4.43-3.75 8 8 0 0 0 -9.4 12.95z"/><path d="m453.99 147.31a7.991 7.991 0 1 0 -4.89-3.67 7.92 7.92 0 0 0 4.89 3.67z"/><path d="m56.02 131.56a8.005 8.005 0 1 0 -.01 16.01 8.493 8.493 0 0 0 2-.25 8.007 8.007 0 0 0 -1.99-15.76z"/><path d="m17.38 232.76a59.069 59.069 0 0 0 41.9 17.38h.079a59.165 59.165 0 0 0 41.911-17.37c7.19-7.34 11.23-17.67 14.23-26.82 4.149-12.93 7.52-29.56 10.01-49.42 1.849-14.87 2.469-25.83 2.48-25.94l.5-8.94-8.94.51h-.02c-1.551.09-15.6.95-33.171 3.44a8 8 0 0 0 1.111 15.92 7.272 7.272 0 0 0 1.139-.08c9.141-1.3 17.341-2.13 22.6-2.6l.1-.01c-.86 9.69-2.491 24.31-5.31 39.01a184.573 184.573 0 0 1 -6.9 26.67c-2.68 7.66-6.1 13.99-9.14 16.94a43.325 43.325 0 0 1 -61.271-61.27 21.728 21.728 0 0 1 2.511-2.11 8 8 0 0 0 -9.4-12.95 36.9 36.9 0 0 0 -4.42 3.75 59.268 59.268 0 0 0 0 83.89z"/><path d="m144 120a8 8 0 0 0 16 0 24 24 0 0 1 48 0 8 8 0 0 0 16 0 40 40 0 0 0 -80 0z"/><path d="m288 120a8 8 0 0 0 16 0 24 24 0 0 1 48 0 8 8 0 0 0 16 0 40 40 0 0 0 -80 0z"/><circle cx="216.02" cy="216" r="8"/><path d="m256 448a120.136 120.136 0 0 0 120-120v-131.273a24.143 24.143 0 0 0 -18.854-23.443c-22.622-4.961-65.841-13.284-101.146-13.284s-78.524 8.323-101.146 13.284a24.143 24.143 0 0 0 -18.854 23.443v131.273a120.136 120.136 0 0 0 120 120zm0-16a103.616 103.616 0 0 1 -71.069-28.146c5.499-24.876 35.735-43.854 71.069-43.854s65.57 18.978 71.069 43.854a103.616 103.616 0 0 1 -71.069 28.146zm-104-235.273a7.946 7.946 0 0 1 6.282-7.814c2.909-.638 6.176-1.334 9.718-2.06v13.147a23.958 23.958 0 0 0 12.52 21.08 8 8 0 1 0 7.66-14.05 8.012 8.012 0 0 1 -4.18-7.03v-16.24c21.782-3.95 48.807-7.76 72-7.76s50.218 3.81 72 7.76v16.24a8.037 8.037 0 0 1 -8 8h-71.98a8 8 0 0 0 0 16h71.98a24 24 0 0 0 24-24v-13.147c3.542.726 6.809 1.422 9.718 2.06a7.946 7.946 0 0 1 6.282 7.814v131.273a103.455 103.455 0 0 1 -20.62 62.092c-11.748-27.128-44.644-46.092-83.38-46.092s-71.632 18.964-83.38 46.092a103.455 103.455 0 0 1 -20.62-62.092z"/></g></g></svg>